<svg xmlns="http://www.w3.org/2000/svg" width="400" height="400" viewBox="0 0 400 400">
  <defs>
    <linearGradient id="bg" x1="0%" y1="0%" x2="100%" y2="100%">
      <stop offset="0%" style="stop-color:#2d2845"/>
      <stop offset="100%" style="stop-color:#1e1b2e"/>
    </linearGradient>
  </defs>
  <rect width="400" height="400" fill="url(#bg)" rx="16"/>
  <!-- Head -->
  <ellipse cx="200" cy="108" rx="46" ry="54" fill="none" stroke="#f472b6" stroke-width="2.5" opacity="0.8"/>
  <!-- Hair flowing -->
  <path d="M 154 92 Q 148 48 200 40 Q 252 48 246 92" fill="none" stroke="#f472b6" stroke-width="2.5" opacity="0.7"/>
  <path d="M 154 92 Q 140 130 142 180" fill="none" stroke="#f472b6" stroke-width="2" opacity="0.5"/>
  <path d="M 246 92 Q 260 130 258 180" fill="none" stroke="#f472b6" stroke-width="2" opacity="0.5"/>
  <!-- Eyes with lashes -->
  <ellipse cx="182" cy="100" rx="8" ry="5.5" fill="none" stroke="#f472b6" stroke-width="2" opacity="0.7"/>
  <circle cx="182" cy="100" r="2.5" fill="#f472b6" opacity="0.5"/>
  <path d="M 174 96 L 172 92" stroke="#f472b6" stroke-width="1" opacity="0.4"/>
  <path d="M 190 96 L 192 92" stroke="#f472b6" stroke-width="1" opacity="0.4"/>
  <ellipse cx="218" cy="100" rx="8" ry="5.5" fill="none" stroke="#f472b6" stroke-width="2" opacity="0.7"/>
  <circle cx="218" cy="100" r="2.5" fill="#f472b6" opacity="0.5"/>
  <path d="M 210 96 L 208 92" stroke="#f472b6" stroke-width="1" opacity="0.4"/>
  <path d="M 226 96 L 228 92" stroke="#f472b6" stroke-width="1" opacity="0.4"/>
  <!-- Eyebrows -->
  <path d="M 172 90 Q 182 86 192 90" fill="none" stroke="#f472b6" stroke-width="1.5" opacity="0.5"/>
  <path d="M 208 90 Q 218 86 228 90" fill="none" stroke="#f472b6" stroke-width="1.5" opacity="0.5"/>
  <!-- Nose -->
  <path d="M 200 107 L 197 120 Q 200 123 203 120 Z" fill="none" stroke="#f472b6" stroke-width="1.5" opacity="0.5"/>
  <!-- Lips -->
  <path d="M 188 132 Q 194 128 200 130 Q 206 128 212 132" fill="none" stroke="#f472b6" stroke-width="1.5" opacity="0.6"/>
  <path d="M 188 132 Q 200 140 212 132" fill="none" stroke="#f472b6" stroke-width="1.5" opacity="0.6"/>
  <!-- Neck -->
  <line x1="192" y1="162" x2="192" y2="182" stroke="#f472b6" stroke-width="2" opacity="0.6"/>
  <line x1="208" y1="162" x2="208" y2="182" stroke="#f472b6" stroke-width="2" opacity="0.6"/>
  <!-- Body -->
  <path d="M 150 195 Q 148 182 200 182 Q 252 182 250 195 L 248 310 Q 248 320 200 322 Q 152 320 152 310 Z" fill="none" stroke="#f472b6" stroke-width="2" opacity="0.7"/>
  <!-- Arms -->
  <path d="M 150 195 Q 132 230 135 280" fill="none" stroke="#f472b6" stroke-width="2" opacity="0.5"/>
  <path d="M 250 195 Q 268 230 265 280" fill="none" stroke="#f472b6" stroke-width="2" opacity="0.5"/>
  <text x="200" y="395" text-anchor="middle" fill="#a09cb5" font-size="11" font-family="sans-serif">Getting clearer!</text>
</svg>
