<svg xmlns="http://www.w3.org/2000/svg" width="400" height="400" viewBox="0 0 400 400">
  <defs>
    <linearGradient id="bg" x1="0%" y1="0%" x2="100%" y2="100%">
      <stop offset="0%" style="stop-color:#2d2845"/>
      <stop offset="100%" style="stop-color:#1e1b2e"/>
    </linearGradient>
  </defs>
  <rect width="400" height="400" fill="url(#bg)" rx="16"/>
  <ellipse cx="200" cy="115" rx="44" ry="52" fill="none" stroke="#f472b6" stroke-width="2.5" opacity="0.6"/>
  <!-- Hair -->
  <path d="M 156 100 Q 150 55 200 45 Q 250 55 244 100" fill="none" stroke="#f472b6" stroke-width="2" opacity="0.5"/>
  <path d="M 156 100 Q 148 140 155 170" fill="none" stroke="#f472b6" stroke-width="1.5" opacity="0.4"/>
  <path d="M 244 100 Q 252 140 245 170" fill="none" stroke="#f472b6" stroke-width="1.5" opacity="0.4"/>
  <!-- Eyes -->
  <ellipse cx="183" cy="108" rx="7" ry="5" fill="none" stroke="#f472b6" stroke-width="1.5" opacity="0.5"/>
  <ellipse cx="217" cy="108" rx="7" ry="5" fill="none" stroke="#f472b6" stroke-width="1.5" opacity="0.5"/>
  <!-- Nose + mouth -->
  <line x1="200" y1="115" x2="198" y2="126" stroke="#f472b6" stroke-width="1.5" opacity="0.4"/>
  <path d="M 190 136 Q 200 143 210 136" fill="none" stroke="#f472b6" stroke-width="1.5" opacity="0.4"/>
  <!-- Body -->
  <line x1="200" y1="167" x2="200" y2="190" stroke="#f472b6" stroke-width="2" opacity="0.5"/>
  <path d="M 165 200 Q 160 190 200 190 Q 240 190 235 200 L 240 290 Q 240 300 200 305 Q 160 300 160 290 Z" fill="none" stroke="#f472b6" stroke-width="2" opacity="0.5"/>
  <text x="200" y="395" text-anchor="middle" fill="#a09cb5" font-size="11" font-family="sans-serif">Taking shape...</text>
</svg>
