<svg xmlns="http://www.w3.org/2000/svg" width="400" height="400" viewBox="0 0 400 400">
  <defs>
    <linearGradient id="bg" x1="0%" y1="0%" x2="100%" y2="100%">
      <stop offset="0%" style="stop-color:#2d2845"/>
      <stop offset="100%" style="stop-color:#1e1b2e"/>
    </linearGradient>
  </defs>
  <rect width="400" height="400" fill="url(#bg)" rx="16"/>
  <ellipse cx="200" cy="120" rx="48" ry="55" fill="none" stroke="#7c3aed" stroke-width="2.5" opacity="0.6"/>
  <!-- Eyes -->
  <ellipse cx="182" cy="112" rx="6" ry="4" fill="none" stroke="#7c3aed" stroke-width="1.5" opacity="0.5"/>
  <ellipse cx="218" cy="112" rx="6" ry="4" fill="none" stroke="#7c3aed" stroke-width="1.5" opacity="0.5"/>
  <!-- Nose -->
  <line x1="200" y1="118" x2="197" y2="130" stroke="#7c3aed" stroke-width="1.5" opacity="0.4"/>
  <!-- Mouth -->
  <path d="M 188 140 Q 200 148 212 140" fill="none" stroke="#7c3aed" stroke-width="1.5" opacity="0.4"/>
  <!-- Neck + body -->
  <line x1="200" y1="175" x2="200" y2="200" stroke="#7c3aed" stroke-width="2" opacity="0.5"/>
  <path d="M 155 210 Q 155 200 200 200 Q 245 200 245 210 L 245 300 Q 245 310 200 310 Q 155 310 155 300 Z" fill="none" stroke="#7c3aed" stroke-width="2" opacity="0.5"/>
  <!-- Arms -->
  <line x1="155" y1="215" x2="130" y2="280" stroke="#7c3aed" stroke-width="2" opacity="0.4"/>
  <line x1="245" y1="215" x2="270" y2="280" stroke="#7c3aed" stroke-width="2" opacity="0.4"/>
  <text x="200" y="395" text-anchor="middle" fill="#a09cb5" font-size="11" font-family="sans-serif">Taking shape...</text>
</svg>
