<svg xmlns="http://www.w3.org/2000/svg" width="400" height="400" viewBox="0 0 400 400">
  <defs>
    <linearGradient id="bg" x1="0%" y1="0%" x2="100%" y2="100%">
      <stop offset="0%" style="stop-color:#2d2845"/>
      <stop offset="100%" style="stop-color:#1e1b2e"/>
    </linearGradient>
  </defs>
  <rect width="400" height="400" fill="url(#bg)" rx="16"/>
  <ellipse cx="200" cy="118" rx="46" ry="54" fill="none" stroke="#a78bfa" stroke-width="2.5" opacity="0.6"/>
  <ellipse cx="183" cy="110" rx="6" ry="4" fill="none" stroke="#a78bfa" stroke-width="1.5" opacity="0.5"/>
  <ellipse cx="217" cy="110" rx="6" ry="4" fill="none" stroke="#a78bfa" stroke-width="1.5" opacity="0.5"/>
  <line x1="200" y1="116" x2="198" y2="128" stroke="#a78bfa" stroke-width="1.5" opacity="0.4"/>
  <path d="M 189 138 Q 200 145 211 138" fill="none" stroke="#a78bfa" stroke-width="1.5" opacity="0.4"/>
  <line x1="200" y1="172" x2="200" y2="195" stroke="#a78bfa" stroke-width="2" opacity="0.5"/>
  <path d="M 160 205 Q 158 195 200 195 Q 242 195 240 205 L 242 295 Q 242 305 200 308 Q 158 305 158 295 Z" fill="none" stroke="#a78bfa" stroke-width="2" opacity="0.5"/>
  <line x1="158" y1="210" x2="135" y2="275" stroke="#a78bfa" stroke-width="2" opacity="0.4"/>
  <line x1="242" y1="210" x2="265" y2="275" stroke="#a78bfa" stroke-width="2" opacity="0.4"/>
  <text x="200" y="395" text-anchor="middle" fill="#a09cb5" font-size="11" font-family="sans-serif">Taking shape...</text>
</svg>
